<svg width="49" height="43" viewBox="0 0 49 43" fill="none" xmlns="http://www.w3.org/2000/svg">
<path fill-rule="evenodd" clip-rule="evenodd" d="M16.4959 1.26441C18.6808 0.0759275 21.3192 0.0759273 23.5041 1.26441L36.1708 8.15442C38.5309 9.43819 40 11.9098 40 14.5964V27.6362C40 30.3228 38.5309 32.7944 36.1708 34.0782L23.5041 40.9682C21.3192 42.1567 18.6808 42.1567 16.4959 40.9682L3.82923 34.0782C1.46915 32.7944 0 30.3228 0 27.6362V14.5964C0 11.9098 1.46915 9.43819 3.82923 8.15442L16.4959 1.26441Z" fill="#2B3036"/>
<path fill-rule="evenodd" clip-rule="evenodd" d="M23.3751 16.0645V21.1285C23.3751 25.5893 20.9826 27.7777 17.2029 27.7777C13.4232 27.7777 11.1111 25.5683 11.1111 21.2337V16.0645C11.1111 15.1597 11.7947 14.4443 12.6592 14.4443C13.5237 14.4443 14.2073 15.1597 14.2073 16.0645V21.1496C14.2073 23.5483 15.3533 24.7898 17.2431 24.7898C19.133 24.7898 20.279 23.5904 20.279 21.2548V16.0645C20.279 15.1597 20.9625 14.4443 21.827 14.4443C22.6916 14.4443 23.3751 15.1597 23.3751 16.0645ZM27.3408 27.6725C26.4763 27.6725 25.7927 26.957 25.7927 26.0523V16.0645C25.7927 15.1597 26.4763 14.4443 27.3408 14.4443C28.2053 14.4443 28.8889 15.1597 28.8889 16.0645V26.0523C28.8889 26.957 28.2053 27.6725 27.3408 27.6725Z" fill="#FCFCFD"/>
<path fill-rule="evenodd" clip-rule="evenodd" d="M39.4418 19.123C44.6563 19.123 48.8835 14.8422 48.8835 9.56152C48.8835 4.28084 44.6563 0 39.4418 0C34.2272 0 30 4.28084 30 9.56152C30 14.8422 34.2272 19.123 39.4418 19.123Z" fill="#2D68FF"/>
<path fill-rule="evenodd" clip-rule="evenodd" d="M39.4444 13.3334C41.0391 13.3334 42.2222 12.5125 42.2222 11.1081V11.0865C42.2222 10.1899 41.7901 9.70381 41.0597 9.30412C41.6152 8.94764 41.9753 8.46153 41.9753 7.65134V7.62974C41.9753 6.46307 40.9671 5.55566 39.4444 5.55566C37.9218 5.55566 36.9136 6.47387 36.9136 7.62974V7.65134C36.9136 8.46153 37.2737 8.94764 37.8292 9.30412C37.0679 9.6714 36.6667 10.2115 36.6667 11.1297V11.1513C36.6667 12.4692 37.8498 13.3334 39.4444 13.3334ZM39.4444 8.75319C38.8169 8.75319 38.4156 8.3535 38.4156 7.82418V7.80258C38.4156 7.33807 38.7963 6.92758 39.4444 6.92758C40.0926 6.92758 40.4733 7.34887 40.4733 7.81338V7.83498C40.4733 8.36431 40.072 8.75319 39.4444 8.75319ZM38.1996 11.0217C38.1996 11.5402 38.6626 11.9615 39.4445 11.9615C40.2263 11.9615 40.6893 11.551 40.6893 11.0217V11.0001C40.6893 10.4168 40.1646 10.0711 39.4445 10.0711C38.7243 10.0711 38.1996 10.4168 38.1996 11.0001V11.0217Z" fill="white"/>
</svg>
